<svg id="visual" viewBox="0 0 900 600" width="900" height="600" xmlns="http://www.w3.org/2000/svg" xmlns:xlink="http://www.w3.org/1999/xlink" version="1.1"><g fill="#a2d2ff"><circle r="43" cx="849" cy="485"></circle><circle r="17" cx="76" cy="557"></circle><circle r="26" cx="388" cy="11"></circle><circle r="39" cx="648" cy="50"></circle><circle r="26" cx="518" cy="138"></circle><circle r="27" cx="315" cy="555"></circle><circle r="37" cx="470" cy="248"></circle><circle r="29" cx="828" cy="583"></circle><circle r="17" cx="799" cy="381"></circle><circle r="19" cx="155" cy="25"></circle><circle r="21" cx="594" cy="499"></circle><circle r="38" cx="726" cy="546"></circle><circle r="40" cx="608" cy="244"></circle><circle r="32" cx="332" cy="438"></circle><circle r="20" cx="172" cy="288"></circle><circle r="16" cx="226" cy="414"></circle><circle r="22" cx="14" cy="73"></circle><circle r="26" cx="794" cy="64"></circle><circle r="39" cx="387" cy="332"></circle><circle r="41" cx="356" cy="234"></circle><circle r="40" cx="850" cy="214"></circle><circle r="31" cx="447" cy="84"></circle><circle r="34" cx="731" cy="201"></circle><circle r="21" cx="67" cy="231"></circle><circle r="22" cx="698" cy="330"></circle><circle r="27" cx="115" cy="154"></circle><circle r="27" cx="446" cy="586"></circle><circle r="26" cx="575" cy="354"></circle><circle r="25" cx="301" cy="31"></circle><circle r="22" cx="25" cy="407"></circle><circle r="28" cx="148" cy="375"></circle><circle r="29" cx="212" cy="118"></circle></g></svg>